# xmcd
#
# Track frame offsets: 
#        150
#        17175
#        34295
#        51205
#        76000
#        97772
#        118757
#        143077
#        164115
#        186822
#        207092
#        227245
#        251687
#        267790
#        288587
#
# Disc length: 4147 seconds
#
# Revision: 13
# Processed by: cddbd v1.5.2PL0 Copyright (c) Steve Scherf et al.
# Submitted via: ExactAudioCopy v1.0b3
#
DISCID=d210310f
DTITLE=MAX - MAXIMUM COLLECTION
DYEAR=1999
DGENRE=JPop
TTITLE0=TORA TORA TORA
TTITLE1=Seventies
TTITLE2=GET MY LOVE!
TTITLE3=Give me a Shake
TTITLE4=Love is Dreaming
TTITLE5=Shinin' on-Shinin' love
TTITLE6=I will
TTITLE7=Easy Easy
TTITLE8=閃光-ひかり-のVEIL
TTITLE9=SO REAL
TTITLE10=Ride on time
TTITLE11=Grace of my heart
TTITLE12=Love impact
TTITLE13=あの夏へと
TTITLE14=銀河の誓い
EXTD=YEAR: 1999
EXTT0=
EXTT1=
EXTT2=
EXTT3=
EXTT4=
EXTT5=
EXTT6=
EXTT7=
EXTT8=
EXTT9=
EXTT10=
EXTT11=
EXTT12=
EXTT13=
EXTT14=
PLAYORDER=
